<svg height='20px' width='20px'  fill="#1759bf" xmlns="http://www.w3.org/2000/svg" xmlns:xlink="http://www.w3.org/1999/xlink" version="1.1" x="0px" y="0px" viewBox="0 0 100 100" style="enable-background:new 0 0 100 100;" xml:space="preserve"><g><path d="M50.4,5.5c-3,0-5.5,2.5-5.5,5.5v43.8L28.5,38.4c-2.1-2.1-5.6-2.1-7.8,0c-2.1,2.1-2.1,5.6,0,7.8l25.8,25.8c0,0,0,0,0,0   c0.3,0.3,0.5,0.5,0.8,0.7c0,0,0,0,0,0c0.3,0.2,0.6,0.4,0.9,0.5c0,0,0,0,0,0c0.3,0.1,0.7,0.2,1,0.3c0,0,0,0,0,0   c0.3,0.1,0.7,0.1,1.1,0.1c0,0,0,0,0,0c0,0,0,0,0,0c1.1,0,2.2-0.4,3-0.9c0,0,0,0,0,0c0.3-0.2,0.6-0.4,0.8-0.7c0,0,0,0,0,0l25.4-25.8   c2.1-2.2,2.1-5.6-0.1-7.8c-2.2-2.1-5.6-2.1-7.8,0.1L55.9,54.6V11C55.9,8,53.5,5.5,50.4,5.5z"></path><path d="M85.8,64.6c-3,0-5.5,2.5-5.5,5.5V80H20.1v-9.9c0-3-2.5-5.5-5.5-5.5S9.1,67,9.1,70.1V91h82.2V70.1   C91.3,67,88.8,64.6,85.8,64.6z"></path></g></svg>